<svg xmlns="http://www.w3.org/2000/svg" width="904" height="900" fill="none" viewBox="0 0 904 900">
    <path fill="url(#paint0_linear)" d="M0 0H904V900H0z"/>
    <mask id="dyakisx37a" width="904" height="900" x="0" y="0" maskUnits="userSpaceOnUse">
        <path fill="#39CE96" d="M0 0H904V900H0z"/>
    </mask>
    <g mask="url(#dyakisx37a)">
        <g opacity=".35">
            <path fill="#39CE96" d="M129.764-293.325h-1.854v1273.65h1.854v-1273.65zM259.54-293.325h-3.708v1273.65h3.708v-1273.65zM387.46-293.325h-1.854v1273.65h1.854v-1273.65zM515.383-293.325h-1.854v1273.65h1.854v-1273.65zM645.157-293.325h-3.708v1273.65h3.708v-1273.65zM773.079-293.325h-1.854v1273.65h1.854v-1273.65z" opacity=".35"/>
            <g opacity=".6">
                <path fill="#39CE96" d="M901 779.062H0v4.227h901v-4.227zM901 582.805H0v4.227h901v-4.227zM901 386.289H0v4.227h901v-4.227zM901 189.772H0v4.227h901v-4.227z" opacity=".6"/>
            </g>
        </g>
        <g opacity=".3">
            <path fill="#fff" d="M798.769 975.318h31.715V688.664h-31.715v286.654z" opacity=".3"/>
            <path fill="#6D98D9" d="M703.884 975.333H735.6V635.507h-31.716v339.826z" opacity=".3"/>
            <g opacity=".3">
                <path fill="#fff" d="M450.675 975.325h31.715V697.402h-31.715v277.923zM418.938 975.322h31.727V654.611h-31.727v320.711z" opacity=".3"/>
            </g>
            <g opacity=".3">
                <path fill="#fff" d="M324.067 975.329h31.715V781.445h-31.715v193.884zM292.339 975.318h31.715V824.816h-31.715v150.502z" opacity=".3"/>
            </g>
            <g opacity=".3">
                <path fill="#6D98D9" d="M197.446 975.329h31.727V781.445h-31.727v193.884z" opacity=".3"/>
                <path fill="#fff" d="M165.741 975.333h31.715V758.794h-31.715v216.539z" opacity=".3"/>
            </g>
            <g opacity=".3">
                <path fill="#6D98D9" d="M70.858 975.323h31.715v-85.281H70.858v85.281z" opacity=".3"/>
                <path fill="#fff" d="M39.132 975.331h31.716V842.256H39.132v133.075z" opacity=".3"/>
            </g>
        </g>
    </g>
    <path fill="#000" d="M451.5 701c199.099 0 360.5-12.088 360.5-27s-161.401-27-360.5-27S91 659.088 91 674s161.401 27 360.5 27z" opacity=".12"/>
    <path fill="url(#paint1_linear)" d="M514.792 582.265s-2.904 62.823 23.707 91.923h-99.865v-91.923h76.158z"/>
    <path fill="url(#paint2_linear)" d="M363.437 582.265s2.904 62.823-23.707 91.923h99.865v-91.923h-76.158z"/>
    <path fill="url(#paint3_linear)" d="M555.041 677.524c-10.803-.953-16.634-3.524-16.634-3.524H339.594s-5.832 2.571-16.635 3.524C312.224 678.476 305 679.143 305 683h268c0-3.857-7.157-4.524-17.959-5.476z"/>
    <path fill="#344554" d="M731.978 589.495H166.809c-19.222 0-34.809-15.587-34.809-34.809V206.809C132 187.587 147.587 172 166.809 172h565.169c19.222 0 34.809 15.587 34.809 34.809v347.877c0 19.222-15.587 34.809-34.809 34.809z"/>
    <path fill="url(#paint4_linear)" d="M449.135 564.466c4.493 0 8.136-3.642 8.136-8.135s-3.643-8.136-8.136-8.136c-4.493 0-8.135 3.643-8.135 8.136 0 4.493 3.642 8.135 8.135 8.135z"/>
    <path fill="#F4F7FC" d="M741.4 204.953H157.405V523.65H741.4V204.953z"/>
    <g opacity=".6">
        <path fill="#D1D3D4" d="M262.607 272.852h-1.461v217.431h1.461V272.852zM187.041 272.853h-1.462v217.43h1.462v-217.43zM338.174 272.852h-1.462v217.431h1.462V272.852zM413.757 272.852h-1.462v217.431h1.462V272.852zM489.324 272.852h-1.462v217.431h1.462V272.852zM564.908 272.852h-1.462v217.431h1.462V272.852zM640.472 272.852h-1.462v217.431h1.462V272.852zM716.038 272.852h-1.462v217.431h1.462V272.852z" opacity=".6"/>
    </g>
    <g opacity=".6">
        <path fill="#D1D3D4" d="M715.307 442.79H186.311v1.462h528.996v-1.462zM715.307 374.83H186.311v1.462h528.996v-1.462zM715.308 306.851H186.312v1.462h528.996v-1.462z" opacity=".6"/>
    </g>
    <path fill="#FF441D" d="M189.866 443.521c0 1.976-1.6 3.556-3.556 3.556-1.975 0-3.556-1.6-3.556-3.556 0-1.975 1.601-3.556 3.556-3.556 1.976 0 3.556 1.601 3.556 3.556zM189.866 375.562c0 1.975-1.6 3.556-3.556 3.556-1.975 0-3.556-1.601-3.556-3.556 0-1.976 1.601-3.556 3.556-3.556 1.976 0 3.556 1.58 3.556 3.556zM189.866 307.583c0 1.976-1.6 3.556-3.556 3.556-1.975 0-3.556-1.6-3.556-3.556 0-1.975 1.601-3.556 3.556-3.556 1.976 0 3.556 1.601 3.556 3.556z"/>
    <path fill="#D6DADD" d="M673.928 490.285h18.63V379.18h-18.63v111.105z"/>
    <path fill="#39CE96" d="M655.303 490.29h18.63v-97.395h-18.63v97.395z"/>
    <path fill="#D6DADD" d="M599.578 490.281h18.63V374.829h-18.63v115.452z"/>
    <path fill="#39CE96" d="M580.955 490.293h18.629V366.228h-18.629v124.065z"/>
    <path fill="#D6DADD" d="M525.227 490.283h18.629V317.481h-18.629v172.802z"/>
    <path fill="#39CE96" d="M506.603 490.292h18.63v-156.8h-18.63v156.8z"/>
    <path fill="#D6DADD" d="M450.878 490.276h18.629v-94.431h-18.629v94.431z"/>
    <path fill="#39CE96" d="M432.253 490.278h18.63V381.326h-18.63v108.952z"/>
    <path fill="#D6DADD" d="M376.548 490.276h18.63v-65.865h-18.63v65.865z"/>
    <path fill="#39CE96" d="M357.905 490.28h18.63v-51.128h-18.63v51.128z"/>
    <path fill="#D6DADD" d="M302.201 490.276h18.63v-65.865h-18.63v65.865z"/>
    <path fill="#39CE96" d="M283.577 490.285h18.629v-73.57h-18.629v73.57z"/>
    <path fill="#D6DADD" d="M227.852 490.276h18.629v-28.981h-18.629v28.981z"/>
    <path fill="#39CE96" d="M209.228 490.294h18.63v-45.221h-18.63v45.221z"/>
    <path fill="#FF441D" d="M220.843 416.93c-.948 0-1.896-.04-2.845-.099l-31.747-2.193.119-1.6 31.747 2.193c6.302.434 12.683-.632 18.491-3.102l54.111-22.956c7.467-3.161 15.626-4.089 23.608-2.687l46.168 8.14c10.254 1.798 20.665-.376 29.318-6.144l58.852-39.255c1.126-.75 2.232-1.58 3.279-2.43l51.029-42.119c13.295-10.964 32.281-12.623 47.275-4.109l47.631 27.026c1.403.79 2.845 1.501 4.307 2.114l65.055 27.243c4.563 1.916 9.384 2.963 14.342 3.101l33.782 1.008-.039 1.6-33.782-1.007c-5.156-.158-10.174-1.245-14.916-3.221l-65.055-27.243c-1.521-.632-3.042-1.382-4.484-2.192l-47.631-27.026c-14.422-8.179-32.676-6.579-45.458 3.971l-51.029 42.119c-1.086.889-2.232 1.738-3.397 2.529l-58.852 39.254c-8.989 6.006-19.815 8.278-30.483 6.401l-46.169-8.14c-7.685-1.363-15.528-.454-22.699 2.588L237.26 413.65c-5.196 2.154-10.806 3.28-16.417 3.28z"/>
    <path fill="#344554" d="M672.019 613.597h59.385L677.037 728.14h2.884l54.723-115.294c.198-.395.158-.869-.079-1.264-.237-.375-.652-.612-1.106-.612h-62.27c-.514 0-.968.296-1.185.75l-55.237 116.4h2.884l54.368-114.523z"/>
    <path fill="#344554" d="M690.531 613.597h59.583l29.198 114.544h2.687l-29.613-116.163c-.139-.573-.672-.988-1.265-.988h-62.27c-.395 0-.79.178-1.027.513-.257.316-.336.731-.237 1.126l29.456 115.531h2.686l-29.198-114.563z"/>
    <path fill="#344554" d="M716.332 647.458h-63.297v3.635h63.297v-3.635zM640.687 674.82l-1.324 3.635h65.925l-1.304-3.635h-63.297zM628.043 701.352l-1.797 3.615h63.297l1.797-3.615h-63.297zM668.088 621.915l3.932-8.317h59.385l-3.931 8.317h-59.386zM702.563 599.295l-.198 5.433 1.008 2.765v2.806c0 .79-.612 1.462-1.403 1.521-3.951.276-14.026 1.007-20.664 0-.474-.079 0-1.877 0-1.877l6.677-3.714 6.48-3.042 1.205-6.717 6.895 2.825z"/>
    <path fill="#0B3A57" d="M607.222 406.203l-15.627-19.499-4.86 3.892 15.627 19.499c1.067 1.343 3.042 1.561 4.366.474 1.343-1.086 1.561-3.042.494-4.366z"/>
    <path fill="#6D98D9" d="M567.515 395.753c16.456 1.817 31.273-10.036 33.09-26.493 1.818-16.436-10.055-31.253-26.512-33.071-16.456-1.817-31.273 10.036-33.09 26.493-1.818 16.436 10.055 31.253 26.512 33.071z" opacity=".5"/>
    <path fill="#fff" d="M572.433 378.625c-.751 6.796-4.425 12.545-9.641 16.18-13.947-3.853-23.45-17.306-21.81-32.123.336-2.983 1.087-5.788 2.213-8.416 2.845-.849 5.907-1.165 9.048-.81 12.545 1.383 21.573 12.644 20.19 25.169z" opacity=".3"/>
    <path fill="#F36F21" d="M616.803 416.141l-15.429-19.124c-.316-.395-.87-.454-1.265-.138l-5.61 4.484c-.395.317-.455.87-.139 1.265l15.41 19.123c1.56 1.936 4.386 2.252 6.322.692 1.936-1.541 2.252-4.366.711-6.302z"/>
    <path fill="#3C6179" d="M542.74 362.879c1.699-15.449 15.686-26.631 31.154-24.932 15.469 1.699 26.67 15.666 24.952 31.115-1.699 15.449-15.686 26.631-31.155 24.932-15.449-1.699-26.65-15.666-24.951-31.115zm65.055 7.171c2.252-20.388-12.506-38.78-32.913-41.032-20.388-2.253-38.82 12.505-41.072 32.873-2.252 20.368 12.505 38.78 32.913 41.032 20.388 2.252 38.82-12.505 41.072-32.873z"/>
    <path fill="#fff" d="M546.731 363.313c1.462-13.256 13.453-22.857 26.749-21.395 13.276 1.462 22.897 13.454 21.415 26.71-1.462 13.256-13.473 22.857-26.749 21.395-13.276-1.462-22.897-13.454-21.415-26.71z" opacity=".2"/>
    <path fill="#0B3A57" d="M533.81 361.891c2.252-20.388 20.684-35.126 41.072-32.873 20.407 2.252 35.165 20.664 32.913 41.032-2.252 20.368-20.684 35.126-41.072 32.873-20.408-2.252-35.165-20.664-32.913-41.032zm68.75 7.586c1.936-17.484-10.728-33.288-28.251-35.224-17.503-1.936-33.328 10.727-35.264 28.211-1.936 17.484 10.747 33.288 28.251 35.224 17.503 1.936 33.328-10.727 35.264-28.211z"/>
    <path fill="#fff" d="M556.687 359.244c2.904.316 5.512-1.778 5.828-4.662.316-2.904-1.778-5.512-4.662-5.828-2.905-.316-5.512 1.778-5.828 4.662-.336 2.904 1.758 5.512 4.662 5.828z" opacity=".8"/>
    <path fill="#344554" d="M754.915 590.602l1.837 5.927 1.502 1.6s1.165 2.845.573 3.734c-.968 1.462-6.698 2.193-6.698 2.193s-9.324 2.232-12.228 1.086c-.435-.177-.336-1.541-.336-1.541l6.816-4.049 2.805-3.023-1.561-4.05 7.29-1.877z"/>
    <path fill="#FAC5A6" d="M615.874 406.638l-4.228-2.43-6.045-4.188-6.105.119-2.35 2.41.73 8.396 2.786 1.857 4.425 1.343 3.26-1.778 7.527 5.097 3.971-8.613-3.971-2.213zM751.004 453.28l1.402 3.161-.316 3.754 3.023 3.694 2.607.296 4.841-4.504-.198-2.608-1.304-3.378-2.667-1.146-2.864-4.089-5.354 3.26.83 1.56zM682.885 407.744s2.746 7.804 6.282 11.3l-8.712 3.833s.079-4.959-2.232-7.389c-2.331-2.449 4.662-7.744 4.662-7.744z"/>
    <path fill="#FAC5A6" d="M671.922 389.055s-6.559 4.603-7.014 7.31c-.454 2.726-1.382 7.546 1.265 12.861 2.647 5.314 6.677 9.739 13.058 7.606 3.003-1.008 4.03-3.418 4.208-6.144.099-1.443-.237-3.734-.178-4.208.158-1.383-.039-12.822-2.41-14.896-2.39-2.075-6.815-4.149-8.929-2.529z"/>
    <path fill="#000" d="M683.44 409.186s1.363-4.623 1.6-7.408c.099-1.264-.454-9.996-2.37-12.683-1.917-2.687-4.386-5.966-6.579-6.164-2.193-.198-5.532 1.087-8.376 2.608-2.845 1.521-4.88 3.911-6.994 3.417-2.134-.513-2.944-.316-2.944-.316s-1.758 3.24 1.008 6.737 4.188 7.092 6.144 5.275c1.758-1.64 1.541-.376 2.469.632.909 1.008 2.134 2.904 2.134 2.904 1.008-.118 1.521-1.679 2.469-2.074.87-.356 3.379.869 2.272 3.042-1.185 2.351 5.216 5.275 5.216 5.275s3.734-2.015 3.951-1.245z"/>
    <path fill="#0C4BA9" d="M714.732 488.229l12.249 54.723 20.091 53.123 9.286-3.537-14.936-53.616-7.902-56.679-18.788 5.986z"/>
    <path fill="#FFAB1D" d="M679.705 419.302c-5.472 1.718-7.606 6.084-17.167 7.408-10.273 1.403-18.393-1.383-18.393-1.383s-11.182-5.038-25.109-18.946c0 0-.613-.81-2.411 1.383-1.817 2.193-1.619 2.43-2.805 3.774-1.165 1.343-2.054 3.891-2.054 3.891s.197.672 2.113 1.996c1.917 1.323 18.61 16.673 22.64 18.451 4.031 1.778 11.123 4.307 15.232 5.176 2.39.514 26.512 1.976 26.512 1.976l1.798.099-.316-4.485.948-7.408c-.02 0 .474-12.407-.988-11.932zM710.564 425.781s16.476 4.564 23.331 9.305l16.852 18.847s1.303-.356 2.153-.83c.849-.474 4.82-2.746 4.82-2.746s.218-.217-1.047-1.817c-1.264-1.62-13.453-19.302-16.594-21.494-3.142-2.174-26.414-17.563-37.457-17.267.02-.039-.929 6.361 7.942 16.002z"/>
    <path fill="#2564C1" d="M697.407 485.423l-.612 59.721-3.359 55.474c-.039.376.257.711.652.692 1.423-.02 4.583.019 6.006.671 1.857.869 3.319.534 4.05.178.711-.356 6.598-55.039 6.598-55.039l9.503-59.484-22.838-2.213z"/>
    <path fill="#FFAB1D" d="M739.013 482.243c-2.391-12.545-8.634-27.559-12.545-34.573-4.682-8.396-4.623-8.771-7.843-14.658-3.22-5.888-9.305-20.309-13.948-23.075 0 0-4.306-1.126-13.078 3.141-8.791 4.267-18.669 9.206-21.593 12.762-2.924 3.556-2.509 5.058-2.39 6.026.118.948 3.141 5.393 13.315 21.435 10.174 16.041 11.755 22.462 13.473 28.784.791 2.884-1.382 12.782-.987 14.342 6.539-2.884 35.382-3.358 45.596-14.184z"/>
    <path fill="#344554" d="M289.017 711.269l.237 6.223-1.146 3.161v3.2c0 .909.712 1.679 1.62 1.739 4.524.316 16.062 1.165 23.687 0 .534-.079 0-2.154 0-2.154l-7.665-4.267-7.428-3.497-1.383-7.704-7.922 3.299zM228.901 711.467l-2.094 6.776-2.469 4.82v4.821l7.764.237s8.1-.593 11.438-1.897c.494-.197.376-1.778.376-1.778l-5.255-2.746-3.22-3.457 1.778-4.643-8.318-2.133z"/>
    <path fill="#6D98D9" d="M302.318 453.182c12.362-.013 22.372-10.028 22.359-22.368-.014-12.34-10.046-22.333-22.408-22.319-12.362.014-22.372 10.028-22.359 22.368.014 12.34 10.046 22.333 22.408 22.319z" opacity=".5"/>
    <path fill="#fff" d="M311.559 433.071c5.097 0 9.68-2.253 12.801-5.809-1.718-10.648-10.925-18.787-22.067-18.787-2.232 0-4.385.336-6.42.948-.87 2.035-1.344 4.287-1.344 6.638 0 9.404 7.626 17.01 17.03 17.01z" opacity=".6"/>
    <path fill="#F36F21" d="M335.779 469.006l-19.064-19.044 4.742-4.742 19.064 19.045c1.304 1.303 1.304 3.437 0 4.741-1.304 1.324-3.438 1.324-4.742 0z"/>
    <path fill="#3C6179" d="M302.294 409.799c-11.616 0-21.06 9.444-21.06 21.04 0 11.597 9.444 21.04 21.06 21.04 11.616 0 21.059-9.443 21.059-21.04 0-11.596-9.443-21.04-21.059-21.04zm0 48.777c-15.311 0-27.776-12.446-27.776-27.737 0-15.291 12.465-27.737 27.776-27.737s27.776 12.446 27.776 27.737c0 15.291-12.465 27.737-27.776 27.737z"/>
    <path fill="#fff" d="M302.296 412.781c-9.976 0-18.076 8.1-18.076 18.057 0 9.957 8.119 18.057 18.076 18.057 9.977 0 18.077-8.1 18.077-18.057 0-9.957-8.1-18.057-18.077-18.057z" opacity=".4"/>
    <path fill="#0B3A57" d="M302.296 403.082c-15.31 0-27.776 12.446-27.776 27.736 0 15.291 12.466 27.737 27.776 27.737 15.311 0 27.777-12.446 27.777-27.737 0-15.29-12.466-27.736-27.777-27.736zm0 51.562c-13.137 0-23.845-10.688-23.845-23.806 0-13.137 10.688-23.805 23.845-23.805 13.138 0 23.845 10.687 23.845 23.805s-10.707 23.806-23.845 23.806z"/>
    <path fill="#FAC5A6" d="M324.933 469.401l.869-4.978-1.758-5.216 2.983-6.302 3.615-1.343 8.436 4.682.652 3.793-.652 5.275-3.398 2.568-2.608 6.796-8.751-2.746.612-2.529zM215.487 590.602l.395 3.931 2.45 3.556-.909 5.393-2.43 1.778-7.369-1.738-1.284-2.707-.632-4.109 2.015-2.667.514-5.67 7.171.198.079 2.035zM253.91 505.04s1.699 9.324.178 14.817l10.846-1.127s-2.904-4.879-1.976-8.633c.909-3.753-9.048-5.057-9.048-5.057z"/>
    <path fill="#FAC5A6" d="M254.207 480.207s9.146.849 11.142 3.299c1.995 2.45 5.67 6.737 6.045 13.533.375 6.796-1.106 13.493-8.673 14.974-3.575.692-5.966-1.126-7.685-3.714-.908-1.383-1.876-3.852-2.212-4.287-.949-1.284-7.251-12.762-6.065-16.199 1.185-3.438 4.405-8.001 7.448-7.606z"/>
    <path fill="#000" d="M254.187 506.798s-3.991-3.833-5.808-6.46c-.83-1.186-5.216-10.214-4.841-13.968.376-3.773.968-8.416 3.043-9.877 2.054-1.443 6.124-2.055 9.818-2.154 3.695-.099 7.073 1.126 8.91-.573 1.837-1.718 2.746-1.995 2.746-1.995s3.596 2.232 2.825 7.27c-.77 5.057-.118 9.443-3.121 8.732-2.687-.632-1.739.514-2.094 2.035-.356 1.521-.474 4.089-.474 4.089-1.067.455-2.47-.79-3.636-.652-1.066.139-2.864 2.766-.513 4.307 2.529 1.66-2.193 8.199-2.193 8.199s-4.899.158-4.662 1.047z"/>
    <path fill="#0C4BA9" d="M268.016 589.376l-10.51 57.944-19.637 70.409-10.648-4.03 13.354-69.283 3.794-55.04h23.647z"/>
    <path fill="#FF441D" d="M270.249 514.996c6.42-1.383 11.043 1.739 21.296-2.37 11.024-4.426 17.523-11.814 17.523-11.814s8.278-11.36 14.224-33.091c0 0 .139-1.165 3.201 0 3.042 1.166 3.003 1.502 4.939 2.173 1.936.672 4.247 2.707 4.247 2.707s.198.77-.968 3.18c-1.165 2.411-9.028 27.145-12.031 31.214-3.003 4.05-8.633 10.589-12.209 13.79-2.094 1.857-25.267 16.99-25.267 16.99l-1.719 1.126-2.232-4.643-5.157-6.816c-.019 0-7.546-12.07-5.847-12.446zM240.101 540.283s-13.809 13.908-17.938 22.502l-6.065 28.31s-1.501.395-2.607.395h-6.362s-.336-.079 0-2.41c.336-2.332 2.41-26.848 4.307-30.799 1.896-3.951 16.318-32.459 27.441-38.425-.02-.02 4.583 5.808 1.224 20.427z"/>
    <path fill="#2564C1" d="M286.31 582.817l7.33 65.688 5.847 64.284c.04.435-.296.81-.73.81-1.62-.019-5.255.02-6.895.771-2.134.988-3.813.612-4.623.197s-9.542-63.771-9.542-63.771l-17.523-65.411 26.136-2.568z"/>
    <path fill="#FF441D" d="M236.309 521.061s7.408-4.781 18.57-5.512c11.162-.73 23.805-1.442 28.744.455 4.939 1.877 5.374 3.615 5.808 4.642.435 1.028-.059 7.152-1.066 28.883-1.008 21.731 2.509 27.322 4.385 34.572 1.877 7.251 2.904 10.767 2.904 10.767s-1.876 1.739-4.208.731c-2.311-1.007-10.016 5.808-19.143 2.292-9.147-3.497-11.853-3.971-16.061-1.521-4.208 2.449-9.325 3.003-13.809 3.003-4.504 0-4.346.572-3.201-7.685 1.166-8.258.712-12.19.613-21.949-.099-11.023-.395-11.359-.534-19.044-.138-7.665-6.045-24.26-3.002-29.634z"/>
    <path fill="#fff" d="M298.459 419.814c0 2.174-1.758 3.932-3.931 3.932s-3.931-1.758-3.931-3.932c0-2.173 1.758-3.931 3.931-3.931s3.931 1.758 3.931 3.931z" opacity=".8"/>
    <defs>
        <linearGradient id="paint0_linear" x1="451.076" x2="451.076" y1="900" y2="0" gradientUnits="userSpaceOnUse">
            <stop stop-color="#39CE96"/>
            <stop offset="1" stop-color="#E8FFF6"/>
        </linearGradient>
        <linearGradient id="paint1_linear" x1="488.555" x2="488.555" y1="549.303" y2="665.742" gradientUnits="userSpaceOnUse">
            <stop stop-color="#5A5B68"/>
            <stop offset=".552" stop-color="#37404D"/>
            <stop offset="1" stop-color="#1F2D3B"/>
        </linearGradient>
        <linearGradient id="paint2_linear" x1="389.651" x2="389.651" y1="549.303" y2="665.742" gradientUnits="userSpaceOnUse">
            <stop stop-color="#5A5B68"/>
            <stop offset=".552" stop-color="#37404D"/>
            <stop offset="1" stop-color="#1F2D3B"/>
        </linearGradient>
        <linearGradient id="paint3_linear" x1="439.041" x2="439.041" y1="670.503" y2="684.712" gradientUnits="userSpaceOnUse">
            <stop stop-color="#5A5B68"/>
            <stop offset=".552" stop-color="#37404D"/>
            <stop offset="1" stop-color="#1F2D3B"/>
        </linearGradient>
        <linearGradient id="paint4_linear" x1="441.019" x2="457.267" y1="556.34" y2="556.34" gradientUnits="userSpaceOnUse">
            <stop stop-color="#fff"/>
            <stop offset=".559" stop-color="#DBE6F9"/>
            <stop offset="1" stop-color="#C3D6F5"/>
        </linearGradient>
    </defs>
</svg>
